<svg width="34" height="34" viewBox="0 0 34 34" fill="none" xmlns="http://www.w3.org/2000/svg">
<path d="M9.20853 24.0833H24.5499C25.8957 24.0833 26.5686 24.0833 27.117 23.8402C27.6005 23.6259 28.0143 23.2805 28.3117 22.8431C28.649 22.347 28.7694 21.685 29.0101 20.3609L30.9237 9.83607C31.0072 9.37716 31.0489 9.14771 30.9844 8.96855C30.9279 8.81136 30.8176 8.67922 30.6731 8.59546C30.5083 8.5 30.2751 8.5 29.8087 8.5H7.08353M2.83334 2.83333H4.69824C5.04205 2.83333 5.21396 2.83333 5.35298 2.89613C5.47552 2.95148 5.57978 3.04057 5.65356 3.15297C5.73728 3.28051 5.76409 3.45031 5.81771 3.78991L9.76563 28.7934C9.81925 29.133 9.84606 29.3028 9.92978 29.4304C10.0036 29.5428 10.1078 29.6319 10.2304 29.6872C10.3694 29.75 10.5413 29.75 10.8851 29.75H26.9167" stroke="#1B1C1E" stroke-width="2" stroke-linecap="round" stroke-linejoin="round"/>
</svg>
