<svg width="34" height="34" viewBox="0 0 34 34" fill="none" xmlns="http://www.w3.org/2000/svg">
<path d="M12.75 29.75V19.2667C12.75 18.4733 12.75 18.0766 12.9044 17.7735C13.0402 17.507 13.257 17.2902 13.5235 17.1544C13.8266 17 14.2233 17 15.0167 17H18.9833C19.7767 17 20.1734 17 20.4765 17.1544C20.743 17.2902 20.9598 17.507 21.0956 17.7735C21.25 18.0766 21.25 18.4733 21.25 19.2667V29.75M15.6084 3.91569L6.00014 11.3888C5.35786 11.8883 5.03673 12.1381 4.80537 12.4509C4.60043 12.728 4.44777 13.0401 4.35487 13.372C4.25 13.7467 4.25 14.1535 4.25 14.9672V25.2167C4.25 26.8035 4.25 27.5969 4.55881 28.203C4.83046 28.7361 5.2639 29.1695 5.79703 29.4412C6.40311 29.75 7.19652 29.75 8.78333 29.75H25.2167C26.8035 29.75 27.5969 29.75 28.203 29.4412C28.7361 29.1695 29.1695 28.7361 29.4412 28.203C29.75 27.5969 29.75 26.8035 29.75 25.2167V14.9672C29.75 14.1535 29.75 13.7467 29.6451 13.372C29.5522 13.0401 29.3996 12.728 29.1946 12.4509C28.9633 12.1381 28.6421 11.8883 27.9999 11.3888L18.3916 3.91569C17.8939 3.52858 17.645 3.33503 17.3702 3.26062C17.1278 3.19498 16.8722 3.19498 16.6298 3.26062C16.355 3.33503 16.1061 3.52858 15.6084 3.91569Z" stroke="#1B1C1E" stroke-width="2" stroke-linecap="round" stroke-linejoin="round"/>
</svg>
