<svg width="26" height="27" viewBox="0 0 26 27" fill="none" xmlns="http://www.w3.org/2000/svg">
<path fill-rule="evenodd" clip-rule="evenodd" d="M25 9.10424C25 13.5542 21.2834 17.2085 16.64 17.2085C11.9966 17.2085 8.28 13.5542 8.28 9.10424C8.28 4.65433 11.9966 1 16.64 1C21.2834 1 25 4.65433 25 9.10424ZM26 9.10424C26 14.1324 21.8094 18.2085 16.64 18.2085C14.9529 18.2085 13.3701 17.7743 12.0032 17.0147L0.64372 26.0548L4.82451e-06 25.2896L11.1084 16.4492C8.78701 14.7924 7.28 12.1195 7.28 9.10424C7.28 4.07611 11.4706 0 16.64 0C21.8094 0 26 4.07611 26 9.10424Z" fill="#1B1C1E"/>
</svg>
